<svg version="1.1" xmlns="http://www.w3.org/2000/svg" xmlns:xlink="http://www.w3.org/1999/xlink" role="img" width="463" height="108" viewBox="0 0 463 108"><title>vxeTree </title><desc>Generated by logo.svg, https://github.com/bubkoo/logo.svg</desc><path fill="#5e7ce0" d="M29.80 69.20L37.48 69.20L37.48 61.52L29.80 61.52L29.80 69.20M39.30 69.10L46.98 69.10L46.98 61.42L39.30 61.42L39.30 69.10M20.10 69.20L27.78 69.20L27.78 61.52L20.10 61.52L20.10 69.20M10.60 59.60L18.28 59.60L18.28 51.92L10.60 51.92L10.60 59.60M39.30 59.50L46.98 59.50L46.98 51.82L39.30 51.82L39.30 59.50M49 59.50L56.68 59.50L56.68 51.82L49 51.82L49 59.50M20.10 59.60L27.78 59.60L27.78 51.92L20.10 51.92L20.10 59.60M10.60 50L18.28 50L18.28 42.32L10.60 42.32L10.60 50M39.30 49.90L46.98 49.90L46.98 42.22L39.30 42.22L39.30 49.90M49 49.90L56.68 49.90L56.68 42.22L49 42.22L49 49.90M20.10 50L27.78 50L27.78 42.32L20.10 42.32L20.10 50M10.60 40.40L18.28 40.40L18.28 32.72L10.60 32.72L10.60 40.40M49 40.30L56.68 40.30L56.68 32.62L49 32.62L49 40.30M58.70 40.40L66.38 40.40L66.38 32.72L58.70 32.72L58.70 40.40M1 40.40L8.68 40.40L8.68 32.72L1 32.72L1 40.40M10.60 30.80L18.28 30.80L18.28 23.12L10.60 23.12L10.60 30.80M49 30.70L56.68 30.70L56.68 23.02L49 23.02L49 30.70M58.70 30.80L66.38 30.80L66.38 23.12L58.70 23.12L58.70 30.80M1 30.80L8.68 30.80L8.68 23.12L1 23.12L1 30.80M29.80 78.80L37.48 78.80L37.48 71.12L29.80 71.12L29.80 78.80M39.30 78.70L46.98 78.70L46.98 71.02L39.30 71.02L39.30 78.70M20.10 78.80L27.78 78.80L27.78 71.12L20.10 71.12L20.10 78.80ZM87.50 69.20L95.18 69.20L95.18 61.52L87.50 61.52L87.50 69.20M116.20 69.10L123.88 69.10L123.88 61.42L116.20 61.42L116.20 69.10M125.90 69.10L133.58 69.10L133.58 61.42L125.90 61.42L125.90 69.10M77.90 69.20L85.58 69.20L85.58 61.52L77.90 61.52L77.90 69.20M106.70 59.60L114.38 59.60L114.38 51.92L106.70 51.92L106.70 59.60M87.50 59.60L95.18 59.60L95.18 51.92L87.50 51.92L87.50 59.60M116.20 59.50L123.88 59.50L123.88 51.82L116.20 51.82L116.20 59.50M97 59.60L104.68 59.60L104.68 51.92L97 51.92L97 59.60M106.70 50L114.38 50L114.38 42.32L106.70 42.32L106.70 50M97 50L104.68 50L104.68 42.32L97 42.32L97 50M106.70 40.40L114.38 40.40L114.38 32.72L106.70 32.72L106.70 40.40M87.50 40.40L95.18 40.40L95.18 32.72L87.50 32.72L87.50 40.40M116.20 40.30L123.88 40.30L123.88 32.62L116.20 32.62L116.20 40.30M97 40.40L104.68 40.40L104.68 32.72L97 32.72L97 40.40M87.50 30.80L95.18 30.80L95.18 23.12L87.50 23.12L87.50 30.80M116.20 30.70L123.88 30.70L123.88 23.02L116.20 23.02L116.20 30.70M125.90 30.70L133.58 30.70L133.58 23.02L125.90 23.02L125.90 30.70M77.90 30.80L85.58 30.80L85.58 23.12L77.90 23.12L77.90 30.80M87.50 78.80L95.18 78.80L95.18 71.12L87.50 71.12L87.50 78.80M116.20 78.70L123.88 78.70L123.88 71.02L116.20 71.02L116.20 78.70M125.90 78.70L133.58 78.70L133.58 71.02L125.90 71.02L125.90 78.70M77.90 78.80L85.58 78.80L85.58 71.12L77.90 71.12L77.90 78.80ZM154.70 69.20L162.38 69.20L162.38 61.52L154.70 61.52L154.70 69.20M145.10 69.20L152.78 69.20L152.78 61.52L145.10 61.52L145.10 69.20M154.70 59.60L162.38 59.60L162.38 51.92L154.70 51.92L154.70 59.60M145.10 59.60L152.78 59.60L152.78 51.92L145.10 51.92L145.10 59.60M173.90 50L181.58 50L181.58 42.32L173.90 42.32L173.90 50M154.70 50L162.38 50L162.38 42.32L154.70 42.32L154.70 50M183.40 49.90L191.08 49.90L191.08 42.22L183.40 42.22L183.40 49.90M145.10 50L152.78 50L152.78 42.32L145.10 42.32L145.10 50M164.20 50L171.88 50L171.88 42.32L164.20 42.32L164.20 50M173.90 40.40L181.58 40.40L181.58 32.72L173.90 32.72L173.90 40.40M154.70 40.40L162.38 40.40L162.38 32.72L154.70 32.72L154.70 40.40M183.40 40.30L191.08 40.30L191.08 32.62L183.40 32.62L183.40 40.30M145.10 40.40L152.78 40.40L152.78 32.72L145.10 32.72L145.10 40.40M173.90 30.80L181.58 30.80L181.58 23.12L173.90 23.12L173.90 30.80M154.70 30.80L162.38 30.80L162.38 23.12L154.70 23.12L154.70 30.80M183.40 30.70L191.08 30.70L191.08 23.02L183.40 23.02L183.40 30.70M145.10 30.80L152.78 30.80L152.78 23.12L145.10 23.12L145.10 30.80M164.20 30.80L171.88 30.80L171.88 23.12L164.20 23.12L164.20 30.80M173.90 78.80L181.58 78.80L181.58 71.12L173.90 71.12L173.90 78.80M154.70 78.80L162.38 78.80L162.38 71.12L154.70 71.12L154.70 78.80M183.40 78.70L191.08 78.70L191.08 71.02L183.40 71.02L183.40 78.70M145.10 78.80L152.78 78.80L152.78 71.12L145.10 71.12L145.10 78.80M164.20 78.80L171.88 78.80L171.88 71.12L164.20 71.12L164.20 78.80ZM231.50 69.20L239.18 69.20L239.18 61.52L231.50 61.52L231.50 69.20M221.80 69.20L229.48 69.20L229.48 61.52L221.80 61.52L221.80 69.20M231.50 59.60L239.18 59.60L239.18 51.92L231.50 51.92L231.50 59.60M221.80 59.60L229.48 59.60L229.48 51.92L221.80 51.92L221.80 59.60M231.50 50L239.18 50L239.18 42.32L231.50 42.32L231.50 50M221.80 50L229.48 50L229.48 42.32L221.80 42.32L221.80 50M231.50 40.40L239.18 40.40L239.18 32.72L231.50 32.72L231.50 40.40M221.80 40.40L229.48 40.40L229.48 32.72L221.80 32.72L221.80 40.40M231.50 30.80L239.18 30.80L239.18 23.12L231.50 23.12L231.50 30.80M221.80 30.80L229.48 30.80L229.48 23.12L221.80 23.12L221.80 30.80M231.50 21.20L239.18 21.20L239.18 13.52L231.50 13.52L231.50 21.20M221.80 21.20L229.48 21.20L229.48 13.52L221.80 13.52L221.80 21.20M231.50 11.60L239.18 11.60L239.18 3.92L231.50 3.92L231.50 11.60M212.30 11.60L219.98 11.60L219.98 3.92L212.30 3.92L212.30 11.60M241 11.50L248.68 11.50L248.68 3.82L241 3.82L241 11.50M250.70 11.50L258.38 11.50L258.38 3.82L250.70 3.82L250.70 11.50M202.70 11.60L210.38 11.60L210.38 3.92L202.70 3.92L202.70 11.60M221.80 11.60L229.48 11.60L229.48 3.92L221.80 3.92L221.80 11.60M231.50 78.80L239.18 78.80L239.18 71.12L231.50 71.12L231.50 78.80M221.80 78.80L229.48 78.80L229.48 71.12L221.80 71.12L221.80 78.80ZM260.30 69.20L267.98 69.20L267.98 61.52L260.30 61.52L260.30 69.20M250.70 69.20L258.38 69.20L258.38 61.52L250.70 61.52L250.70 69.20M260.30 59.60L267.98 59.60L267.98 51.92L260.30 51.92L260.30 59.60M250.70 59.60L258.38 59.60L258.38 51.92L250.70 51.92L250.70 59.60M260.30 50L267.98 50L267.98 42.32L260.30 42.32L260.30 50M250.70 50L258.38 50L258.38 42.32L250.70 42.32L250.70 50M270.28 30.70L277.96 30.70L277.96 23.02L270.28 23.02L270.28 30.70M260.30 40.40L267.98 40.40L267.98 32.72L260.30 32.72L260.30 40.40M250.70 40.40L258.38 40.40L258.38 32.72L250.70 32.72L250.70 40.40M279.50 30.80L287.18 30.80L287.18 23.12L279.50 23.12L279.50 30.80M260.30 30.80L267.98 30.80L267.98 23.12L260.30 23.12L260.30 30.80M260.30 78.80L267.98 78.80L267.98 71.12L260.30 71.12L260.30 78.80M250.70 78.80L258.38 78.80L258.38 71.12L250.70 71.12L250.70 78.80ZM308.30 69.20L315.98 69.20L315.98 61.52L308.30 61.52L308.30 69.20M298.70 69.20L306.38 69.20L306.38 61.52L298.70 61.52L298.70 69.20M308.30 59.60L315.98 59.60L315.98 51.92L308.30 51.92L308.30 59.60M298.70 59.60L306.38 59.60L306.38 51.92L298.70 51.92L298.70 59.60M327.50 50L335.18 50L335.18 42.32L327.50 42.32L327.50 50M308.30 50L315.98 50L315.98 42.32L308.30 42.32L308.30 50M337 49.90L344.68 49.90L344.68 42.22L337 42.22L337 49.90M298.70 50L306.38 50L306.38 42.32L298.70 42.32L298.70 50M317.80 50L325.48 50L325.48 42.32L317.80 42.32L317.80 50M327.50 40.40L335.18 40.40L335.18 32.72L327.50 32.72L327.50 40.40M308.30 40.40L315.98 40.40L315.98 32.72L308.30 32.72L308.30 40.40M337 40.30L344.68 40.30L344.68 32.62L337 32.62L337 40.30M298.70 40.40L306.38 40.40L306.38 32.72L298.70 32.72L298.70 40.40M327.50 30.80L335.18 30.80L335.18 23.12L327.50 23.12L327.50 30.80M308.30 30.80L315.98 30.80L315.98 23.12L308.30 23.12L308.30 30.80M337 30.70L344.68 30.70L344.68 23.02L337 23.02L337 30.70M298.70 30.80L306.38 30.80L306.38 23.12L298.70 23.12L298.70 30.80M317.80 30.80L325.48 30.80L325.48 23.12L317.80 23.12L317.80 30.80M327.50 78.80L335.18 78.80L335.18 71.12L327.50 71.12L327.50 78.80M308.30 78.80L315.98 78.80L315.98 71.12L308.30 71.12L308.30 78.80M337 78.70L344.68 78.70L344.68 71.02L337 71.02L337 78.70M298.70 78.80L306.38 78.80L306.38 71.12L298.70 71.12L298.70 78.80M317.80 78.80L325.48 78.80L325.48 71.12L317.80 71.12L317.80 78.80ZM365.90 69.20L373.58 69.20L373.58 61.52L365.90 61.52L365.90 69.20M356.30 69.20L363.98 69.20L363.98 61.52L356.30 61.52L356.30 69.20M365.90 59.60L373.58 59.60L373.58 51.92L365.90 51.92L365.90 59.60M356.30 59.60L363.98 59.60L363.98 51.92L356.30 51.92L356.30 59.60M385.10 50L392.78 50L392.78 42.32L385.10 42.32L385.10 50M365.90 50L373.58 50L373.58 42.32L365.90 42.32L365.90 50M394.60 49.90L402.28 49.90L402.28 42.22L394.60 42.22L394.60 49.90M356.30 50L363.98 50L363.98 42.32L356.30 42.32L356.30 50M375.40 50L383.08 50L383.08 42.32L375.40 42.32L375.40 50M385.10 40.40L392.78 40.40L392.78 32.72L385.10 32.72L385.10 40.40M365.90 40.40L373.58 40.40L373.58 32.72L365.90 32.72L365.90 40.40M394.60 40.30L402.28 40.30L402.28 32.62L394.60 32.62L394.60 40.30M356.30 40.40L363.98 40.40L363.98 32.72L356.30 32.72L356.30 40.40M385.10 30.80L392.78 30.80L392.78 23.12L385.10 23.12L385.10 30.80M365.90 30.80L373.58 30.80L373.58 23.12L365.90 23.12L365.90 30.80M394.60 30.70L402.28 30.70L402.28 23.02L394.60 23.02L394.60 30.70M356.30 30.80L363.98 30.80L363.98 23.12L356.30 23.12L356.30 30.80M375.40 30.80L383.08 30.80L383.08 23.12L375.40 23.12L375.40 30.80M385.10 78.80L392.78 78.80L392.78 71.12L385.10 71.12L385.10 78.80M365.90 78.80L373.58 78.80L373.58 71.12L365.90 71.12L365.90 78.80M394.60 78.70L402.28 78.70L402.28 71.02L394.60 71.02L394.60 78.70M356.30 78.80L363.98 78.80L363.98 71.12L356.30 71.12L356.30 78.80M375.40 78.80L383.08 78.80L383.08 71.12L375.40 71.12L375.40 78.80Z"></path></svg>